<svg width="154" height="66" viewBox="0 0 154 66" fill="none" xmlns="http://www.w3.org/2000/svg">
<path d="M40 7.68876C37.0809 4.08031 33.6112 2.66087 29 3.18876C23.6344 3.80302 21.3831 7.62205 18.5 12.1888C9.96441 25.7086 45.065 33.8455 38 48.1888C34.1861 55.9318 29.1007 60.9622 20.5 61.6888C12.2337 62.3871 1.5 52.1888 1.5 52.1888" stroke="black" stroke-width="3" stroke-linecap="round"/>
<path d="M152 6.68923C152 6.68923 145.611 1.66134 141 2.18923C135.634 2.80349 133.383 6.62251 130.5 11.1892C121.964 24.7091 157.065 32.8459 150 47.1892C146.186 54.9323 141.101 59.9627 132.5 60.6892C124.234 61.3875 113.5 51.1892 113.5 51.1892" stroke="black" stroke-width="3" stroke-linecap="round"/>
<path d="M42 63.1504L50.5 4.65039C50.5 4.65039 65 49.6504 71 61.6504C77 73.6504 65.5 4.65039 65.5 4.65039" stroke="black" stroke-width="3" stroke-linecap="round"/>
<path d="M84.718 7.61316L82.7821 64.1883" stroke="black" stroke-width="3" stroke-linecap="round"/>
<path d="M82.5 1.65039C82.8797 0.0376259 84.1962 0.307811 85.0026 0.49765C85.809 0.68749 87.2429 1.89126 86.8632 3.50403C86.4835 5.11679 85.1137 5.38619 83.9714 4.8779C82.7746 4.34541 82.1203 3.26316 82.5 1.65039Z" fill="black"/>
<path d="M97 63.1508V34.1508M97 34.1508C97 34.1508 87.0736 10.603 97 5.15076C106.833 -0.250144 128.5 8.15076 121.5 20.1508C114.5 32.1508 97 34.1508 97 34.1508Z" stroke="black" stroke-width="3" stroke-linecap="round"/>
</svg>
